<mxfile host="app.diagrams.net" modified="2023-12-17T22:59:24.880Z" agent="Mozilla/5.0 (Windows NT 10.0; Win64; x64) AppleWebKit/537.36 (KHTML, like Gecko) Chrome/120.0.0.0 Safari/537.36 Edg/120.0.0.0" etag="Y-aiwhhyKDkoIzb0gqHk" version="22.1.11" type="device">
  <diagram name="Page-1" id="7bP6ASQy8Ecu-uKiy4Aq">
    <mxGraphModel dx="1267" dy="490" grid="1" gridSize="5" guides="1" tooltips="1" connect="1" arrows="1" fold="1" page="1" pageScale="1" pageWidth="827" pageHeight="1169" math="0" shadow="0">
      <root>
        <mxCell id="0" />
        <mxCell id="1" parent="0" />
        <mxCell id="I5YC6RWjpnD2j4ILSQie-95" style="edgeStyle=orthogonalEdgeStyle;rounded=0;orthogonalLoop=1;jettySize=auto;html=1;dashed=1;startArrow=none;startFill=0;endArrow=classic;endFill=1;fillColor=#f8cecc;strokeColor=#b85450;" edge="1" parent="1">
          <mxGeometry relative="1" as="geometry">
            <mxPoint x="540" y="316" as="targetPoint" />
            <mxPoint x="444" y="316" as="sourcePoint" />
          </mxGeometry>
        </mxCell>
        <mxCell id="I5YC6RWjpnD2j4ILSQie-41" value="" style="shape=parallelogram;perimeter=parallelogramPerimeter;whiteSpace=wrap;html=1;fixedSize=1;dashed=1;size=30;" vertex="1" parent="1">
          <mxGeometry x="45" y="46" width="335" height="84" as="geometry" />
        </mxCell>
        <mxCell id="I5YC6RWjpnD2j4ILSQie-28" value="" style="shape=parallelogram;perimeter=parallelogramPerimeter;whiteSpace=wrap;html=1;fixedSize=1;dashed=1;fillColor=#d5e8d4;strokeColor=#82b366;" vertex="1" parent="1">
          <mxGeometry x="225" y="40" width="184" height="60" as="geometry" />
        </mxCell>
        <mxCell id="I5YC6RWjpnD2j4ILSQie-13" style="edgeStyle=orthogonalEdgeStyle;rounded=0;orthogonalLoop=1;jettySize=auto;html=1;exitX=1;exitY=0.5;exitDx=0;exitDy=0;dashed=1;startArrow=classic;startFill=1;endArrow=none;endFill=0;" edge="1" parent="1" source="I5YC6RWjpnD2j4ILSQie-16">
          <mxGeometry relative="1" as="geometry">
            <mxPoint x="427" y="80" as="targetPoint" />
            <mxPoint x="370" y="79.60000000000002" as="sourcePoint" />
          </mxGeometry>
        </mxCell>
        <mxCell id="I5YC6RWjpnD2j4ILSQie-55" style="edgeStyle=orthogonalEdgeStyle;rounded=0;orthogonalLoop=1;jettySize=auto;html=1;exitX=0.5;exitY=1;exitDx=0;exitDy=0;entryX=0.5;entryY=0;entryDx=0;entryDy=0;" edge="1" parent="1" source="I5YC6RWjpnD2j4ILSQie-16" target="I5YC6RWjpnD2j4ILSQie-48">
          <mxGeometry relative="1" as="geometry" />
        </mxCell>
        <mxCell id="I5YC6RWjpnD2j4ILSQie-16" value="Interception API" style="rounded=0;whiteSpace=wrap;html=1;" vertex="1" parent="1">
          <mxGeometry x="244" y="64.6" width="89" height="30" as="geometry" />
        </mxCell>
        <mxCell id="I5YC6RWjpnD2j4ILSQie-18" value="Forward" style="text;html=1;align=center;verticalAlign=middle;resizable=0;points=[];autosize=1;strokeColor=none;fillColor=none;fontStyle=1" vertex="1" parent="1">
          <mxGeometry x="336" y="57" width="70" height="30" as="geometry" />
        </mxCell>
        <mxCell id="I5YC6RWjpnD2j4ILSQie-20" value="Uplink (RX)&lt;br&gt;Frame" style="text;html=1;align=left;verticalAlign=middle;resizable=0;points=[];autosize=1;strokeColor=none;fillColor=none;fontStyle=0" vertex="1" parent="1">
          <mxGeometry x="460.5" y="56.1" width="80" height="45" as="geometry" />
        </mxCell>
        <mxCell id="I5YC6RWjpnD2j4ILSQie-29" value="Decoding Uplink" style="text;html=1;align=center;verticalAlign=middle;resizable=0;points=[];autosize=1;strokeColor=none;fillColor=none;" vertex="1" parent="1">
          <mxGeometry x="265" y="30.75" width="110" height="30" as="geometry" />
        </mxCell>
        <mxCell id="I5YC6RWjpnD2j4ILSQie-44" value="Callbacks (Uplink)" style="text;html=1;align=center;verticalAlign=middle;resizable=0;points=[];autosize=1;strokeColor=none;fillColor=none;fontStyle=4" vertex="1" parent="1">
          <mxGeometry x="80" y="38" width="120" height="30" as="geometry" />
        </mxCell>
        <mxCell id="I5YC6RWjpnD2j4ILSQie-56" style="edgeStyle=orthogonalEdgeStyle;rounded=0;orthogonalLoop=1;jettySize=auto;html=1;exitX=0;exitY=0.5;exitDx=0;exitDy=0;entryX=1;entryY=0.5;entryDx=0;entryDy=0;" edge="1" parent="1" source="I5YC6RWjpnD2j4ILSQie-48" target="I5YC6RWjpnD2j4ILSQie-54">
          <mxGeometry relative="1" as="geometry" />
        </mxCell>
        <mxCell id="I5YC6RWjpnD2j4ILSQie-48" value="rx_pre_dissection" style="rounded=1;whiteSpace=wrap;html=1;verticalAlign=middle;spacingBottom=3;spacing=0;fontSize=10;fontStyle=1;fillColor=#eeeeee;strokeColor=#36393d;" vertex="1" parent="1">
          <mxGeometry x="254" y="105.8" width="91" height="15" as="geometry" />
        </mxCell>
        <mxCell id="I5YC6RWjpnD2j4ILSQie-49" value="rx_post_dissection(...)" style="rounded=1;whiteSpace=wrap;html=1;verticalAlign=middle;spacingBottom=3;spacing=0;fontSize=10;fontStyle=3;align=center;fillColor=#eeeeee;strokeColor=#36393d;" vertex="1" parent="1">
          <mxGeometry x="73" y="105.8" width="108" height="15" as="geometry" />
        </mxCell>
        <mxCell id="I5YC6RWjpnD2j4ILSQie-57" style="edgeStyle=orthogonalEdgeStyle;rounded=0;orthogonalLoop=1;jettySize=auto;html=1;exitX=0;exitY=0.5;exitDx=0;exitDy=0;entryX=1;entryY=0.5;entryDx=0;entryDy=0;" edge="1" parent="1" source="I5YC6RWjpnD2j4ILSQie-54" target="I5YC6RWjpnD2j4ILSQie-49">
          <mxGeometry relative="1" as="geometry" />
        </mxCell>
        <mxCell id="I5YC6RWjpnD2j4ILSQie-54" value="Decoder" style="shape=hexagon;perimeter=hexagonPerimeter2;whiteSpace=wrap;html=1;fixedSize=1;size=5;fontSize=10;fillColor=#d5e8d4;strokeColor=#82b366;dashed=1;" vertex="1" parent="1">
          <mxGeometry x="194" y="105.8" width="45" height="15" as="geometry" />
        </mxCell>
        <mxCell id="I5YC6RWjpnD2j4ILSQie-59" style="edgeStyle=orthogonalEdgeStyle;rounded=0;orthogonalLoop=1;jettySize=auto;html=1;exitX=0.75;exitY=0;exitDx=0;exitDy=0;entryX=0.5;entryY=0;entryDx=0;entryDy=0;" edge="1" parent="1" target="I5YC6RWjpnD2j4ILSQie-48">
          <mxGeometry relative="1" as="geometry">
            <mxPoint x="283.5" y="94.60000000000002" as="sourcePoint" />
          </mxGeometry>
        </mxCell>
        <mxCell id="I5YC6RWjpnD2j4ILSQie-61" value="&lt;span style=&quot;font-family: Helvetica; font-size: 12px; font-style: normal; font-variant-ligatures: normal; font-variant-caps: normal; font-weight: 400; letter-spacing: normal; orphans: 2; text-align: center; text-indent: 0px; text-transform: none; widows: 2; word-spacing: 0px; -webkit-text-stroke-width: 0px; text-decoration-thickness: initial; text-decoration-style: initial; text-decoration-color: initial; float: none; display: inline !important;&quot;&gt;C++ User Script&amp;nbsp;&lt;/span&gt;&lt;span style=&quot;font-family: Helvetica; font-size: 12px; font-style: normal; font-variant-ligatures: normal; font-variant-caps: normal; font-weight: 400; letter-spacing: normal; orphans: 2; text-align: center; text-indent: 0px; text-transform: none; widows: 2; word-spacing: 0px; -webkit-text-stroke-width: 0px; text-decoration-thickness: initial; text-decoration-style: initial; text-decoration-color: initial; float: none; display: inline !important;&quot;&gt;(Exploit)&lt;/span&gt;" style="text;whiteSpace=wrap;html=1;fontColor=default;labelBackgroundColor=none;" vertex="1" parent="1">
          <mxGeometry x="125" y="124" width="161" height="50" as="geometry" />
        </mxCell>
        <mxCell id="I5YC6RWjpnD2j4ILSQie-62" value="setup(...)" style="rounded=1;whiteSpace=wrap;html=1;verticalAlign=middle;spacingBottom=3;spacing=0;fontSize=10;fontStyle=3;align=center;" vertex="1" parent="1">
          <mxGeometry x="73" y="64.5" width="108" height="15" as="geometry" />
        </mxCell>
        <mxCell id="I5YC6RWjpnD2j4ILSQie-63" value="module_name()" style="rounded=1;whiteSpace=wrap;html=1;verticalAlign=middle;spacingBottom=3;spacing=0;fontSize=10;fontStyle=3;align=center;" vertex="1" parent="1">
          <mxGeometry x="73" y="85" width="108" height="15" as="geometry" />
        </mxCell>
        <mxCell id="I5YC6RWjpnD2j4ILSQie-65" style="edgeStyle=orthogonalEdgeStyle;rounded=0;orthogonalLoop=1;jettySize=auto;html=1;exitX=0;exitY=0.5;exitDx=0;exitDy=0;entryX=1;entryY=0.5;entryDx=0;entryDy=0;" edge="1" parent="1" source="I5YC6RWjpnD2j4ILSQie-64" target="I5YC6RWjpnD2j4ILSQie-62">
          <mxGeometry relative="1" as="geometry" />
        </mxCell>
        <mxCell id="I5YC6RWjpnD2j4ILSQie-66" style="edgeStyle=orthogonalEdgeStyle;rounded=0;orthogonalLoop=1;jettySize=auto;html=1;exitX=0;exitY=0.5;exitDx=0;exitDy=0;entryX=1;entryY=0.5;entryDx=0;entryDy=0;" edge="1" parent="1" source="I5YC6RWjpnD2j4ILSQie-64" target="I5YC6RWjpnD2j4ILSQie-63">
          <mxGeometry relative="1" as="geometry">
            <Array as="points">
              <mxPoint x="200" y="72" />
              <mxPoint x="200" y="92" />
            </Array>
          </mxGeometry>
        </mxCell>
        <mxCell id="I5YC6RWjpnD2j4ILSQie-64" value="" style="ellipse;whiteSpace=wrap;html=1;aspect=fixed;" vertex="1" parent="1">
          <mxGeometry x="211.5" y="67" width="10" height="10" as="geometry" />
        </mxCell>
        <mxCell id="I5YC6RWjpnD2j4ILSQie-67" value="Startup" style="text;html=1;align=center;verticalAlign=middle;resizable=0;points=[];autosize=1;strokeColor=none;fillColor=none;fontSize=10;" vertex="1" parent="1">
          <mxGeometry x="188" y="46" width="55" height="30" as="geometry" />
        </mxCell>
        <mxCell id="I5YC6RWjpnD2j4ILSQie-68" value="" style="fontColor=#0066CC;verticalAlign=top;verticalLabelPosition=bottom;labelPosition=center;align=center;html=1;outlineConnect=0;fillColor=#CCCCCC;strokeColor=#6881B3;gradientColor=none;gradientDirection=north;strokeWidth=2;shape=mxgraph.networks.radio_tower;aspect=fixed;" vertex="1" parent="1">
          <mxGeometry x="410" y="40" width="49.5" height="90" as="geometry" />
        </mxCell>
        <mxCell id="I5YC6RWjpnD2j4ILSQie-69" value="" style="image;points=[];aspect=fixed;html=1;align=center;shadow=0;dashed=0;image=img/lib/allied_telesis/computer_and_terminals/Smartphone.svg;" vertex="1" parent="1">
          <mxGeometry x="530.5" y="56.79999999999999" width="19.8" height="43.199999999999996" as="geometry" />
        </mxCell>
        <mxCell id="I5YC6RWjpnD2j4ILSQie-70" style="edgeStyle=orthogonalEdgeStyle;rounded=0;orthogonalLoop=1;jettySize=auto;html=1;dashed=1;startArrow=classic;startFill=1;endArrow=none;endFill=0;fillColor=#d5e8d4;strokeColor=#82b366;" edge="1" parent="1">
          <mxGeometry relative="1" as="geometry">
            <mxPoint x="532" y="80" as="targetPoint" />
            <mxPoint x="443" y="79.52" as="sourcePoint" />
          </mxGeometry>
        </mxCell>
        <mxCell id="I5YC6RWjpnD2j4ILSQie-71" value="" style="shape=parallelogram;perimeter=parallelogramPerimeter;whiteSpace=wrap;html=1;fixedSize=1;dashed=1;size=30;" vertex="1" parent="1">
          <mxGeometry x="45" y="275.25" width="335" height="84" as="geometry" />
        </mxCell>
        <mxCell id="I5YC6RWjpnD2j4ILSQie-72" value="" style="shape=parallelogram;perimeter=parallelogramPerimeter;whiteSpace=wrap;html=1;fixedSize=1;dashed=1;fillColor=#dae8fc;strokeColor=#6c8ebf;" vertex="1" parent="1">
          <mxGeometry x="225" y="269.25" width="184" height="60" as="geometry" />
        </mxCell>
        <mxCell id="I5YC6RWjpnD2j4ILSQie-73" style="edgeStyle=orthogonalEdgeStyle;rounded=0;orthogonalLoop=1;jettySize=auto;html=1;exitX=1;exitY=0.5;exitDx=0;exitDy=0;dashed=1;startArrow=classic;startFill=1;endArrow=none;endFill=0;fillColor=#cce5ff;strokeColor=#36393d;" edge="1" parent="1">
          <mxGeometry relative="1" as="geometry">
            <mxPoint x="427" y="306.25" as="targetPoint" />
            <mxPoint x="333.0000000000001" y="305.84999999999997" as="sourcePoint" />
          </mxGeometry>
        </mxCell>
        <mxCell id="I5YC6RWjpnD2j4ILSQie-98" style="edgeStyle=orthogonalEdgeStyle;rounded=0;orthogonalLoop=1;jettySize=auto;html=1;exitX=-0.001;exitY=0.406;exitDx=0;exitDy=0;entryX=1.003;entryY=0.571;entryDx=0;entryDy=0;exitPerimeter=0;entryPerimeter=0;" edge="1" parent="1" target="I5YC6RWjpnD2j4ILSQie-97">
          <mxGeometry relative="1" as="geometry">
            <mxPoint x="243.91100000000006" y="306.03709999999995" as="sourcePoint" />
            <mxPoint x="221.5" y="305" as="targetPoint" />
          </mxGeometry>
        </mxCell>
        <mxCell id="I5YC6RWjpnD2j4ILSQie-105" style="edgeStyle=orthogonalEdgeStyle;rounded=0;orthogonalLoop=1;jettySize=auto;html=1;exitX=1;exitY=0.75;exitDx=0;exitDy=0;dashed=1;fillColor=#f8cecc;strokeColor=#b85450;" edge="1" parent="1">
          <mxGeometry relative="1" as="geometry">
            <mxPoint x="424.7466796875" y="316" as="targetPoint" />
            <mxPoint x="332.99999999999994" y="316" as="sourcePoint" />
          </mxGeometry>
        </mxCell>
        <mxCell id="I5YC6RWjpnD2j4ILSQie-75" value="" style="rounded=0;whiteSpace=wrap;html=1;dashed=1;dashPattern=1 1;" vertex="1" parent="1">
          <mxGeometry x="244" y="291" width="89" height="32.85" as="geometry" />
        </mxCell>
        <mxCell id="I5YC6RWjpnD2j4ILSQie-76" value="Hold" style="text;html=1;align=center;verticalAlign=middle;resizable=0;points=[];autosize=1;strokeColor=none;fillColor=none;fontStyle=1" vertex="1" parent="1">
          <mxGeometry x="338" y="284.25" width="50" height="30" as="geometry" />
        </mxCell>
        <mxCell id="I5YC6RWjpnD2j4ILSQie-77" value="Downlink (TX)&lt;br&gt;Frame" style="text;html=1;align=left;verticalAlign=middle;resizable=0;points=[];autosize=1;strokeColor=none;fillColor=none;fontStyle=0" vertex="1" parent="1">
          <mxGeometry x="453" y="292" width="95" height="45" as="geometry" />
        </mxCell>
        <mxCell id="I5YC6RWjpnD2j4ILSQie-78" value="Intercepting Downlink" style="text;html=1;align=center;verticalAlign=middle;resizable=0;points=[];autosize=1;strokeColor=none;fillColor=none;" vertex="1" parent="1">
          <mxGeometry x="253" y="260" width="135" height="30" as="geometry" />
        </mxCell>
        <mxCell id="I5YC6RWjpnD2j4ILSQie-79" value="Callbacks (Downlink)" style="text;html=1;align=center;verticalAlign=middle;resizable=0;points=[];autosize=1;strokeColor=none;fillColor=none;fontStyle=4" vertex="1" parent="1">
          <mxGeometry x="84" y="267.25" width="135" height="30" as="geometry" />
        </mxCell>
        <mxCell id="I5YC6RWjpnD2j4ILSQie-101" style="edgeStyle=orthogonalEdgeStyle;rounded=0;orthogonalLoop=1;jettySize=auto;html=1;exitX=1;exitY=0.5;exitDx=0;exitDy=0;entryX=0.75;entryY=1;entryDx=0;entryDy=0;fillColor=#f8cecc;strokeColor=#b85450;" edge="1" parent="1" source="I5YC6RWjpnD2j4ILSQie-82" target="I5YC6RWjpnD2j4ILSQie-75">
          <mxGeometry relative="1" as="geometry" />
        </mxCell>
        <mxCell id="I5YC6RWjpnD2j4ILSQie-82" value="tx_post_dissection(...)" style="rounded=1;whiteSpace=wrap;html=1;verticalAlign=middle;spacingBottom=3;spacing=0;fontSize=10;fontStyle=1;align=center;fillColor=#eeeeee;strokeColor=#36393d;" vertex="1" parent="1">
          <mxGeometry x="130.5" y="336.2" width="108" height="15" as="geometry" />
        </mxCell>
        <mxCell id="I5YC6RWjpnD2j4ILSQie-100" style="edgeStyle=orthogonalEdgeStyle;rounded=0;orthogonalLoop=1;jettySize=auto;html=1;exitX=0.5;exitY=1;exitDx=0;exitDy=0;entryX=0;entryY=0.5;entryDx=0;entryDy=0;" edge="1" parent="1" source="I5YC6RWjpnD2j4ILSQie-84" target="I5YC6RWjpnD2j4ILSQie-82">
          <mxGeometry relative="1" as="geometry">
            <Array as="points">
              <mxPoint x="93" y="344" />
            </Array>
          </mxGeometry>
        </mxCell>
        <mxCell id="I5YC6RWjpnD2j4ILSQie-84" value="Decoder" style="shape=hexagon;perimeter=hexagonPerimeter2;whiteSpace=wrap;html=1;fixedSize=1;size=5;fontSize=10;fillColor=#dae8fc;strokeColor=#6c8ebf;dashed=1;" vertex="1" parent="1">
          <mxGeometry x="70" y="319.1" width="45" height="15" as="geometry" />
        </mxCell>
        <mxCell id="I5YC6RWjpnD2j4ILSQie-86" value="&lt;span style=&quot;font-family: Helvetica; font-size: 12px; font-style: normal; font-variant-ligatures: normal; font-variant-caps: normal; font-weight: 400; letter-spacing: normal; orphans: 2; text-align: center; text-indent: 0px; text-transform: none; widows: 2; word-spacing: 0px; -webkit-text-stroke-width: 0px; text-decoration-thickness: initial; text-decoration-style: initial; text-decoration-color: initial; float: none; display: inline !important;&quot;&gt;C++ User Script&amp;nbsp;&lt;/span&gt;&lt;span style=&quot;font-family: Helvetica; font-size: 12px; font-style: normal; font-variant-ligatures: normal; font-variant-caps: normal; font-weight: 400; letter-spacing: normal; orphans: 2; text-align: center; text-indent: 0px; text-transform: none; widows: 2; word-spacing: 0px; -webkit-text-stroke-width: 0px; text-decoration-thickness: initial; text-decoration-style: initial; text-decoration-color: initial; float: none; display: inline !important;&quot;&gt;(Exploit)&lt;/span&gt;" style="text;whiteSpace=wrap;html=1;fontColor=default;labelBackgroundColor=none;" vertex="1" parent="1">
          <mxGeometry x="125" y="353.25" width="161" height="50" as="geometry" />
        </mxCell>
        <mxCell id="I5YC6RWjpnD2j4ILSQie-93" value="" style="fontColor=#0066CC;verticalAlign=top;verticalLabelPosition=bottom;labelPosition=center;align=center;html=1;outlineConnect=0;fillColor=#CCCCCC;strokeColor=#6881B3;gradientColor=none;gradientDirection=north;strokeWidth=2;shape=mxgraph.networks.radio_tower;aspect=fixed;" vertex="1" parent="1">
          <mxGeometry x="410" y="269.25" width="49.5" height="90" as="geometry" />
        </mxCell>
        <mxCell id="I5YC6RWjpnD2j4ILSQie-94" value="" style="image;points=[];aspect=fixed;html=1;align=center;shadow=0;dashed=0;image=img/lib/allied_telesis/computer_and_terminals/Smartphone.svg;" vertex="1" parent="1">
          <mxGeometry x="540" y="295.99999999999994" width="19.8" height="43.199999999999996" as="geometry" />
        </mxCell>
        <mxCell id="I5YC6RWjpnD2j4ILSQie-110" style="edgeStyle=orthogonalEdgeStyle;rounded=0;orthogonalLoop=1;jettySize=auto;html=1;exitX=0;exitY=0.5;exitDx=0;exitDy=0;entryX=0.5;entryY=0;entryDx=0;entryDy=0;" edge="1" parent="1" source="I5YC6RWjpnD2j4ILSQie-97" target="I5YC6RWjpnD2j4ILSQie-84">
          <mxGeometry relative="1" as="geometry">
            <Array as="points">
              <mxPoint x="110" y="306" />
              <mxPoint x="92" y="306" />
            </Array>
          </mxGeometry>
        </mxCell>
        <mxCell id="I5YC6RWjpnD2j4ILSQie-97" value="tx_pre_dissection" style="rounded=1;whiteSpace=wrap;html=1;verticalAlign=middle;spacingBottom=3;spacing=0;fontSize=10;fontStyle=3;fillColor=#eeeeee;strokeColor=#36393d;" vertex="1" parent="1">
          <mxGeometry x="130.5" y="298.35" width="91" height="15" as="geometry" />
        </mxCell>
        <mxCell id="I5YC6RWjpnD2j4ILSQie-104" style="edgeStyle=orthogonalEdgeStyle;rounded=0;orthogonalLoop=1;jettySize=auto;html=1;exitX=0.75;exitY=1;exitDx=0;exitDy=0;entryX=1;entryY=0.75;entryDx=0;entryDy=0;endArrow=none;endFill=0;fillColor=#f8cecc;strokeColor=#b85450;" edge="1" parent="1" source="I5YC6RWjpnD2j4ILSQie-75" target="I5YC6RWjpnD2j4ILSQie-75">
          <mxGeometry relative="1" as="geometry">
            <Array as="points">
              <mxPoint x="311" y="316" />
              <mxPoint x="333" y="316" />
            </Array>
          </mxGeometry>
        </mxCell>
        <mxCell id="I5YC6RWjpnD2j4ILSQie-106" value="Forward" style="text;html=1;align=center;verticalAlign=middle;resizable=0;points=[];autosize=1;strokeColor=none;fillColor=none;fontStyle=1" vertex="1" parent="1">
          <mxGeometry x="329" y="307" width="70" height="30" as="geometry" />
        </mxCell>
        <mxCell id="I5YC6RWjpnD2j4ILSQie-108" style="edgeStyle=orthogonalEdgeStyle;rounded=0;orthogonalLoop=1;jettySize=auto;html=1;exitX=1;exitY=0.403;exitDx=0;exitDy=0;entryX=0;entryY=0.403;entryDx=0;entryDy=0;startArrow=none;startFill=0;endArrow=none;endFill=0;exitPerimeter=0;entryPerimeter=0;" edge="1" parent="1">
          <mxGeometry relative="1" as="geometry">
            <mxPoint x="333" y="305.94" as="sourcePoint" />
            <mxPoint x="244" y="305.94" as="targetPoint" />
            <Array as="points">
              <mxPoint x="260" y="306" />
            </Array>
          </mxGeometry>
        </mxCell>
        <mxCell id="I5YC6RWjpnD2j4ILSQie-109" value="Interception API" style="text;html=1;align=center;verticalAlign=middle;resizable=0;points=[];autosize=1;strokeColor=none;fillColor=none;fontSize=10;" vertex="1" parent="1">
          <mxGeometry x="243" y="282.35" width="90" height="30" as="geometry" />
        </mxCell>
        <mxCell id="I5YC6RWjpnD2j4ILSQie-111" value="pkt_buffer[20] = 0x98" style="text;html=1;align=center;verticalAlign=middle;resizable=0;points=[];autosize=1;strokeColor=none;fillColor=none;fontStyle=2;fontSize=10;fontColor=#B30000;" vertex="1" parent="1">
          <mxGeometry x="230.5" y="336" width="115" height="30" as="geometry" />
        </mxCell>
        <mxCell id="I5YC6RWjpnD2j4ILSQie-116" value="Mutate Packet" style="text;html=1;align=center;verticalAlign=middle;resizable=0;points=[];autosize=1;strokeColor=none;fillColor=none;fontSize=10;fontStyle=0;fontColor=#B30000;" vertex="1" parent="1">
          <mxGeometry x="230.5" y="322.25" width="85" height="30" as="geometry" />
        </mxCell>
      </root>
    </mxGraphModel>
  </diagram>
</mxfile>
